<mxfile host="app.diagrams.net" modified="2023-11-18T17:21:15.468Z" agent="Mozilla/5.0 (Windows NT 10.0; Win64; x64) AppleWebKit/537.36 (KHTML, like Gecko) Chrome/118.0.0.0 Safari/537.36" etag="4zoe-jK2vzpfUsLLTsPN" version="22.1.3" type="github">
  <diagram id="R2lEEEUBdFMjLlhIrx00" name="Page-1">
    <mxGraphModel dx="1434" dy="878" grid="1" gridSize="10" guides="1" tooltips="1" connect="1" arrows="1" fold="1" page="1" pageScale="1" pageWidth="850" pageHeight="1100" math="0" shadow="0" extFonts="Permanent Marker^https://fonts.googleapis.com/css?family=Permanent+Marker">
      <root>
        <mxCell id="0" />
        <mxCell id="1" parent="0" />
        <mxCell id="fCBB4Xq0NNn-kK4PaiDX-1" value="Sales_fact" style="swimlane;childLayout=stackLayout;horizontal=1;startSize=50;horizontalStack=0;rounded=1;fontSize=14;fontStyle=0;strokeWidth=2;resizeParent=0;resizeLast=1;shadow=0;dashed=0;align=center;arcSize=4;whiteSpace=wrap;html=1;" vertex="1" parent="1">
          <mxGeometry x="130" y="550" width="160" height="120" as="geometry" />
        </mxCell>
        <mxCell id="fCBB4Xq0NNn-kK4PaiDX-2" value="+product_id&amp;nbsp; &amp;nbsp;int&lt;br style=&quot;border-color: var(--border-color);&quot;&gt;+month_id&amp;nbsp; &amp;nbsp;int&lt;br style=&quot;border-color: var(--border-color);&quot;&gt;+profit&amp;nbsp; &amp;nbsp;float" style="align=left;strokeColor=none;fillColor=none;spacingLeft=4;fontSize=12;verticalAlign=top;resizable=0;rotatable=0;part=1;html=1;" vertex="1" parent="fCBB4Xq0NNn-kK4PaiDX-1">
          <mxGeometry y="50" width="160" height="70" as="geometry" />
        </mxCell>
        <mxCell id="fCBB4Xq0NNn-kK4PaiDX-3" value="Return_fact" style="swimlane;childLayout=stackLayout;horizontal=1;startSize=50;horizontalStack=0;rounded=1;fontSize=14;fontStyle=0;strokeWidth=2;resizeParent=0;resizeLast=1;shadow=0;dashed=0;align=center;arcSize=4;whiteSpace=wrap;html=1;" vertex="1" parent="1">
          <mxGeometry x="710" y="560" width="160" height="120" as="geometry" />
        </mxCell>
        <mxCell id="fCBB4Xq0NNn-kK4PaiDX-4" value="+product_id&amp;nbsp; &amp;nbsp;int&lt;br&gt;+month_id&amp;nbsp; &amp;nbsp;int&lt;br&gt;+returned&amp;nbsp; &amp;nbsp; int" style="align=left;strokeColor=none;fillColor=none;spacingLeft=4;fontSize=12;verticalAlign=top;resizable=0;rotatable=0;part=1;html=1;" vertex="1" parent="fCBB4Xq0NNn-kK4PaiDX-3">
          <mxGeometry y="50" width="160" height="70" as="geometry" />
        </mxCell>
        <mxCell id="fCBB4Xq0NNn-kK4PaiDX-5" value="Product_dim" style="swimlane;childLayout=stackLayout;horizontal=1;startSize=50;horizontalStack=0;rounded=1;fontSize=14;fontStyle=0;strokeWidth=2;resizeParent=0;resizeLast=1;shadow=0;dashed=0;align=center;arcSize=4;whiteSpace=wrap;html=1;" vertex="1" parent="1">
          <mxGeometry x="370" y="420" width="240" height="120" as="geometry" />
        </mxCell>
        <mxCell id="fCBB4Xq0NNn-kK4PaiDX-6" value="+product_id&amp;nbsp; &amp;nbsp;int&lt;br&gt;+category_id int&lt;br&gt;+name&amp;nbsp; text&lt;br&gt;+net_cost numeric" style="align=left;strokeColor=none;fillColor=none;spacingLeft=4;fontSize=12;verticalAlign=top;resizable=0;rotatable=0;part=1;html=1;" vertex="1" parent="fCBB4Xq0NNn-kK4PaiDX-5">
          <mxGeometry y="50" width="240" height="70" as="geometry" />
        </mxCell>
        <mxCell id="fCBB4Xq0NNn-kK4PaiDX-7" value="Month_dim" style="swimlane;childLayout=stackLayout;horizontal=1;startSize=50;horizontalStack=0;rounded=1;fontSize=14;fontStyle=0;strokeWidth=2;resizeParent=0;resizeLast=1;shadow=0;dashed=0;align=center;arcSize=4;whiteSpace=wrap;html=1;" vertex="1" parent="1">
          <mxGeometry x="430" y="650" width="180" height="120" as="geometry" />
        </mxCell>
        <mxCell id="fCBB4Xq0NNn-kK4PaiDX-8" value="+month_id int&lt;br&gt;+month_num&amp;nbsp; int&lt;br&gt;+month_text&amp;nbsp; text&lt;br&gt;+year int" style="align=left;strokeColor=none;fillColor=none;spacingLeft=4;fontSize=12;verticalAlign=top;resizable=0;rotatable=0;part=1;html=1;" vertex="1" parent="fCBB4Xq0NNn-kK4PaiDX-7">
          <mxGeometry y="50" width="180" height="70" as="geometry" />
        </mxCell>
        <mxCell id="fCBB4Xq0NNn-kK4PaiDX-9" value="ProductCategory_Dim" style="swimlane;childLayout=stackLayout;horizontal=1;startSize=50;horizontalStack=0;rounded=1;fontSize=14;fontStyle=0;strokeWidth=2;resizeParent=0;resizeLast=1;shadow=0;dashed=0;align=center;arcSize=4;whiteSpace=wrap;html=1;" vertex="1" parent="1">
          <mxGeometry x="660" y="200" width="160" height="120" as="geometry" />
        </mxCell>
        <mxCell id="fCBB4Xq0NNn-kK4PaiDX-10" value="+category_id&amp;nbsp; &amp;nbsp; int&lt;br&gt;+categoty_name&amp;nbsp; &amp;nbsp;text&lt;br&gt;+category_description&amp;nbsp; text" style="align=left;strokeColor=none;fillColor=none;spacingLeft=4;fontSize=12;verticalAlign=top;resizable=0;rotatable=0;part=1;html=1;" vertex="1" parent="fCBB4Xq0NNn-kK4PaiDX-9">
          <mxGeometry y="50" width="160" height="70" as="geometry" />
        </mxCell>
        <mxCell id="fCBB4Xq0NNn-kK4PaiDX-11" value="" style="edgeStyle=entityRelationEdgeStyle;fontSize=12;html=1;endArrow=ERzeroToMany;startArrow=ERmandOne;rounded=0;entryX=1;entryY=0.357;entryDx=0;entryDy=0;entryPerimeter=0;exitX=0;exitY=0.5;exitDx=0;exitDy=0;" edge="1" parent="1" source="fCBB4Xq0NNn-kK4PaiDX-5" target="fCBB4Xq0NNn-kK4PaiDX-2">
          <mxGeometry width="100" height="100" relative="1" as="geometry">
            <mxPoint x="320" y="650" as="sourcePoint" />
            <mxPoint x="420" y="550" as="targetPoint" />
          </mxGeometry>
        </mxCell>
        <mxCell id="fCBB4Xq0NNn-kK4PaiDX-12" value="" style="edgeStyle=entityRelationEdgeStyle;fontSize=12;html=1;endArrow=ERzeroToMany;startArrow=ERmandOne;rounded=0;entryX=0.006;entryY=0.414;entryDx=0;entryDy=0;exitX=1;exitY=0.5;exitDx=0;exitDy=0;entryPerimeter=0;" edge="1" parent="1" source="fCBB4Xq0NNn-kK4PaiDX-6" target="fCBB4Xq0NNn-kK4PaiDX-4">
          <mxGeometry width="100" height="100" relative="1" as="geometry">
            <mxPoint x="240" y="810" as="sourcePoint" />
            <mxPoint x="340" y="710" as="targetPoint" />
          </mxGeometry>
        </mxCell>
        <mxCell id="fCBB4Xq0NNn-kK4PaiDX-13" value="" style="edgeStyle=entityRelationEdgeStyle;fontSize=12;html=1;endArrow=ERzeroToMany;startArrow=ERmandOne;rounded=0;exitX=0.006;exitY=0.386;exitDx=0;exitDy=0;exitPerimeter=0;entryX=1.013;entryY=0.643;entryDx=0;entryDy=0;entryPerimeter=0;" edge="1" parent="1" source="fCBB4Xq0NNn-kK4PaiDX-8" target="fCBB4Xq0NNn-kK4PaiDX-2">
          <mxGeometry width="100" height="100" relative="1" as="geometry">
            <mxPoint x="210" y="850" as="sourcePoint" />
            <mxPoint x="310" y="750" as="targetPoint" />
          </mxGeometry>
        </mxCell>
        <mxCell id="fCBB4Xq0NNn-kK4PaiDX-14" value="" style="edgeStyle=entityRelationEdgeStyle;fontSize=12;html=1;endArrow=ERzeroToMany;startArrow=ERmandOne;rounded=0;exitX=1;exitY=0.25;exitDx=0;exitDy=0;entryX=0;entryY=0.75;entryDx=0;entryDy=0;" edge="1" parent="1" source="fCBB4Xq0NNn-kK4PaiDX-8" target="fCBB4Xq0NNn-kK4PaiDX-4">
          <mxGeometry width="100" height="100" relative="1" as="geometry">
            <mxPoint x="670" y="880" as="sourcePoint" />
            <mxPoint x="770" y="780" as="targetPoint" />
          </mxGeometry>
        </mxCell>
        <mxCell id="fCBB4Xq0NNn-kK4PaiDX-15" value="" style="edgeStyle=entityRelationEdgeStyle;fontSize=12;html=1;endArrow=ERzeroToMany;endFill=1;startArrow=ERzeroToMany;rounded=0;entryX=0;entryY=0.75;entryDx=0;entryDy=0;exitX=1;exitY=0.333;exitDx=0;exitDy=0;exitPerimeter=0;" edge="1" parent="1" source="fCBB4Xq0NNn-kK4PaiDX-5" target="fCBB4Xq0NNn-kK4PaiDX-9">
          <mxGeometry width="100" height="100" relative="1" as="geometry">
            <mxPoint x="670" y="430" as="sourcePoint" />
            <mxPoint x="350" y="220" as="targetPoint" />
          </mxGeometry>
        </mxCell>
      </root>
    </mxGraphModel>
  </diagram>
</mxfile>
